<?xml version="1.0" standalone="no"?><!DOCTYPE svg PUBLIC "-//W3C//DTD SVG 1.1//EN" "http://www.w3.org/Graphics/SVG/1.1/DTD/svg11.dtd"><svg t="1620195486186" class="icon" viewBox="0 0 1024 1024" version="1.1" xmlns="http://www.w3.org/2000/svg" p-id="7462" xmlns:xlink="http://www.w3.org/1999/xlink" width="200" height="200"><defs><style type="text/css"></style></defs><path d="M710.2 628.91m13.73 0l0.01 0q13.73 0 13.73 13.73l0 237.68q0 13.73-13.73 13.73l-0.01 0q-13.73 0-13.73-13.73l0-237.68q0-13.73 13.73-13.73Z" fill="#1296db" p-id="7463"></path><path d="M591.36 747.74m13.73 0l237.68 0q13.73 0 13.73 13.73l0 0.01q0 13.73-13.73 13.73l-237.68 0q-13.73 0-13.73-13.73l0-0.01q0-13.73 13.73-13.73Z" fill="#1296db" p-id="7464"></path><path d="M624.8 377.51a13.75 13.75 0 0 0 13.73 13.73h199.61L624.8 194.64z" fill="#1296db" p-id="7465"></path><path d="M852 376.05c-79.12-74.33-261.82-242-261.82-242-2.54-2.38-5.77-3.05-9-3.32-0.65-0.05-370.5-0.38-370.5-0.38a41.24 41.24 0 0 0-41.2 41.2v687.59a41.24 41.24 0 0 0 41.2 41.2h344.86a13.74 13.74 0 0 0 0-27.47H210.69A13.75 13.75 0 0 1 197 859.14V171.5a13.75 13.75 0 0 1 13.73-13.73h356.33v200.84a41.24 41.24 0 0 0 41.2 41.2h220.61v199.56h0.1a13.64 13.64 0 0 0 27.26 0h0.11V388.76a14.27 14.27 0 0 0-4.34-12.71z m-243.74-3.7a13.76 13.76 0 0 1-13.73-13.74V175.75l213.34 196.6z" fill="#1296db" p-id="7466"></path></svg>