<?xml version="1.0" standalone="no"?><!DOCTYPE svg PUBLIC "-//W3C//DTD SVG 1.1//EN" "http://www.w3.org/Graphics/SVG/1.1/DTD/svg11.dtd"><svg t="1645596186274" class="icon" viewBox="0 0 1024 1024" version="1.1" xmlns="http://www.w3.org/2000/svg" p-id="2286" xmlns:xlink="http://www.w3.org/1999/xlink" width="200" height="200"><defs><style type="text/css"></style></defs><path d="M844.8 372.1c-0.1-2.3-0.4-4.6-1.4-6.7-1-2.5-2.6-4.6-4.5-6.4l-252-226.4c-0.1-0.1-0.2-0.1-0.3-0.2-3.4-3.6-8.2-5.8-13.5-5.8-0.3 0-0.6 0.2-0.9 0.2H217.8c-20.3 0-36.8 16.5-36.8 36.8V863c0 20.3 16.5 36.8 36.8 36.8h590.3c20.3 0 36.8-16.5 36.8-36.8V372.7v-0.2l-0.1-0.4zM665.5 558.4H546.2v119.3c0 18.3-14.9 33.2-33.2 33.2-18.3 0-33.2-14.9-33.2-33.2V558.4H360.5c-18.3 0-33.2-14.9-33.2-33.2 0-18.3 14.9-33.2 33.2-33.2h119.3V372.7c0-18.3 14.9-33.2 33.2-33.2 18.3 0 33.2 14.9 33.2 33.2V492h119.3c18.3 0 33.2 14.9 33.2 33.2 0 18.3-14.9 33.2-33.2 33.2z" fill="#1296db" p-id="2287"></path></svg>