<?xml version="1.0" standalone="no"?><!DOCTYPE svg PUBLIC "-//W3C//DTD SVG 1.1//EN" "http://www.w3.org/Graphics/SVG/1.1/DTD/svg11.dtd"><svg t="1645669338369" class="icon" viewBox="0 0 1024 1024" version="1.1" xmlns="http://www.w3.org/2000/svg" p-id="2042" xmlns:xlink="http://www.w3.org/1999/xlink" width="200" height="200"><defs><style type="text/css"></style></defs><path d="M712.748735 934.900353C737.109501 934.900353 756.857769 954.661043 756.857769 979.419948L756.857769 979.419948C756.857769 1004.007452 736.780545 1023.939542 712.748735 1023.939542L533.849238 1023.939542C509.488472 1023.939542 489.740203 1004.178853 489.740203 979.419948L489.740203 979.419948C489.740203 954.832444 509.817427 934.900353 533.849238 934.900353L712.748735 934.900353ZM808.990215 333.262554 690.701652 214.973992 785.172232 120.547932C802.534873 103.096251 830.715777 103.096251 848.122938 120.503412L903.416274 175.841268C920.867955 193.24843 920.867955 221.429333 903.416274 238.791975L808.990215 333.262554ZM635.408316 270.267328 753.696878 388.60041 268.700416 873.507833 150.456373 755.26379 635.408316 270.267328ZM89.063853 934.989393 89.063853 819.772682 204.191524 934.900353 89.063853 934.989393ZM879.598291 26.077352C844.783968-8.692451 788.466682-8.692451 753.696878 26.077352 753.696878 26.077352 26.82546 752.904251 13.425062 766.349169 0.024664 779.794086 0.024664 801.34157 0.024664 801.34157L0.024664 979.419948C0.024664 1004.039284 19.924923 1023.939542 44.544258 1023.939542L222.622636 1023.939542C222.622636 1023.939542 242.522895 1025.675807 257.615037 1010.539144 272.70718 995.447002 997.886854 270.267328 997.886854 270.267328 1032.656657 235.497525 1032.656657 179.180238 997.886854 144.365915L879.598291 26.077352Z" p-id="2043" fill="#1296db"></path></svg>