<?xml version="1.0" standalone="no"?><!DOCTYPE svg PUBLIC "-//W3C//DTD SVG 1.1//EN" "http://www.w3.org/Graphics/SVG/1.1/DTD/svg11.dtd"><svg t="1620194729041" class="icon" viewBox="0 0 1024 1024" version="1.1" xmlns="http://www.w3.org/2000/svg" p-id="2895" xmlns:xlink="http://www.w3.org/1999/xlink" width="200" height="200"><defs><style type="text/css"></style></defs><path d="M379.37 490.23a74.9 74.9 0 0 1-74.81-74.82v-34.59a74.82 74.82 0 1 1 149.63 0v34.59a74.91 74.91 0 0 1-74.82 74.82z m0-136.23a26.85 26.85 0 0 0-26.81 26.82v34.59a26.82 26.82 0 1 0 53.63 0v-34.59A26.85 26.85 0 0 0 379.37 354zM541.7 781.19H217V632.63a99.55 99.55 0 0 1 99.44-99.44h125.83a99.55 99.55 0 0 1 99.43 99.44z m-276.7-48h228.7V632.63a51.49 51.49 0 0 0-51.43-51.44H316.48A51.5 51.5 0 0 0 265 632.63zM604.29 734.19h200.66v48H604.29zM604.29 332h200.66v48H604.29zM604.29 533.09h200.66v48H604.29z" p-id="2896" fill="#1296db"></path><path d="M907.62 909h-794V115h794z m-746-48h698V163h-698z" p-id="2897" fill="#1296db"></path></svg>