<?xml version="1.0" standalone="no"?><!DOCTYPE svg PUBLIC "-//W3C//DTD SVG 1.1//EN" "http://www.w3.org/Graphics/SVG/1.1/DTD/svg11.dtd"><svg t="1620195579163" class="icon" viewBox="0 0 1024 1024" version="1.1" xmlns="http://www.w3.org/2000/svg" p-id="10951" xmlns:xlink="http://www.w3.org/1999/xlink" width="200" height="200"><defs><style type="text/css"></style></defs><path d="M478.272 25.472a51.2 51.2 0 0 1 67.456 0l256 224a51.52 51.52 0 0 1 6.208 6.464L832 256a192 192 0 0 1 192 192v384a192 192 0 0 1-192 192H192a192 192 0 0 1-192-192V448a192 192 0 0 1 192-192h24.064a51.52 51.52 0 0 1 6.208-6.528zM832 352H192A96 96 0 0 0 96 448v384A96 96 0 0 0 192 928h640a96 96 0 0 0 96-96V448A96 96 0 0 0 832 352zM512 132.032L370.368 255.936h283.2L512 132.032z" fill="#1296db" p-id="10952"></path><path d="M320 576v128H192V576h128z m256 0v128H448V576h128z m256 0v128h-128V576h128z" fill="#1296db" p-id="10953"></path></svg>