<?xml version="1.0" standalone="no"?><!DOCTYPE svg PUBLIC "-//W3C//DTD SVG 1.1//EN" "http://www.w3.org/Graphics/SVG/1.1/DTD/svg11.dtd"><svg t="1625456448698" class="icon" viewBox="0 0 1024 1024" version="1.1" xmlns="http://www.w3.org/2000/svg" p-id="2439" xmlns:xlink="http://www.w3.org/1999/xlink" width="200" height="200"><defs><style type="text/css"></style></defs><path d="M268.454 249.992a169.605 162.697 90 1 0 325.395 0 169.605 162.697 90 1 0-325.395 0z m508.411 545.313c-12.28-27.288-37.521-107.788-66.364-107.788-28.844 0-31.19 10.916-31.19 10.916l31.19 83.395-159.628-13.813-67.535-159.628c-66-162.697-132-181.116-196.464-181.116-31.172 0-96.703 3.738-146.845 67.183S59.188 909.235 59.188 909.235h305.628L254.979 695.703l46.39-29.335s8.186 17.737 62.08 132.347 90.734 130.3 90.734 130.3h287.208c42.297 0 76.408-13.643 76.408-68.22s-40.934-65.49-40.934-65.49z" p-id="2440" fill="#e6e6e6"></path><path d="M669.078 478.08s-29.676 57.306-53.212 81.865-69.585 86.981-33.77 137.123l105.401-173.11 220.01 100.455-80.84 120.75s-11.257 48.096 4.093 50.142 134.053-191.358 134.053-191.358L669.078 478.08z" p-id="2441" fill="#e6e6e6"></path></svg>