<?xml version="1.0" standalone="no"?><!DOCTYPE svg PUBLIC "-//W3C//DTD SVG 1.1//EN" "http://www.w3.org/Graphics/SVG/1.1/DTD/svg11.dtd"><svg t="1625400328509" class="icon" viewBox="0 0 1024 1024" version="1.1" xmlns="http://www.w3.org/2000/svg" p-id="2434" xmlns:xlink="http://www.w3.org/1999/xlink" width="200" height="200"><defs><style type="text/css"></style></defs><path d="M768.524593 320.968314l-568.98312-212.163198-0.397097 819.89163a43.964299 43.964299 0 0 1-43.510474 41.411533c-23.258532 0-42.092271-18.49337-43.567202-42.999921V44.702332a44.815221 44.815221 0 0 1 20.989407-38.064574c12.820557-7.941938 29.044801-8.79286 40.390427-2.496037l695.600302 259.531184c4.708435 1.758572 9.0765 4.368066 10.211063 6.126638 17.699176 6.013182 29.668811 19.854845 32.221576 37.043467a44.701765 44.701765 0 0 1-21.49996 45.15559L301.368462 700.195847c-11.005257 6.580463-24.790192 8.055394-33.753236 4.197882a44.928677 44.928677 0 0 1-36.986739-44.24794v-263.218512c0-24.563279 19.457748-44.588308 43.510474-44.588309 24.109454 0 43.567202 20.025029 43.567202 44.588309v190.776693l450.81843-266.735656z" p-id="2435" fill="#e6e6e6"></path></svg>