<?xml version="1.0" standalone="no"?><!DOCTYPE svg PUBLIC "-//W3C//DTD SVG 1.1//EN" "http://www.w3.org/Graphics/SVG/1.1/DTD/svg11.dtd"><svg t="1625310239281" class="icon" viewBox="0 0 1024 1024" version="1.1" xmlns="http://www.w3.org/2000/svg" p-id="2738" xmlns:xlink="http://www.w3.org/1999/xlink" width="200" height="200"><defs><style type="text/css"></style></defs><path d="M852.1728 51.2H171.8272C123.2896 51.2 83.968 90.5216 83.968 139.0592v746.0864c0 48.5376 39.3216 87.8592 87.8592 87.8592H851.968c48.5376 0 87.8592-39.3216 87.8592-87.8592V139.0592c0-48.5376-39.3216-87.8592-87.6544-87.8592zM605.7984 783.7696h-366.592c-18.2272 0-32.9728-14.7456-32.9728-32.9728s14.7456-32.9728 32.9728-32.9728h366.592c18.2272 0 32.9728 14.7456 32.9728 32.9728s-14.7456 32.9728-32.9728 32.9728z m178.9952-237.3632H239.2064c-18.2272 0-32.9728-14.7456-32.9728-32.9728 0-18.2272 14.7456-32.9728 32.9728-32.9728h545.5872c18.2272 0 32.9728 14.7456 32.9728 32.9728 0 18.2272-14.7456 32.9728-32.9728 32.9728z m0-237.568H239.2064c-18.2272 0-32.9728-14.7456-32.9728-32.9728s14.7456-32.9728 32.9728-32.9728h545.5872c18.2272 0 32.9728 14.7456 32.9728 32.9728s-14.7456 32.9728-32.9728 32.9728z" p-id="2739" fill="#d81e06"></path></svg>