<?xml version="1.0" standalone="no"?><!DOCTYPE svg PUBLIC "-//W3C//DTD SVG 1.1//EN" "http://www.w3.org/Graphics/SVG/1.1/DTD/svg11.dtd"><svg t="1625313109103" class="icon" viewBox="0 0 1194 1024" version="1.1" xmlns="http://www.w3.org/2000/svg" p-id="4500" width="233.203125" height="200" xmlns:xlink="http://www.w3.org/1999/xlink"><defs><style type="text/css"></style></defs><path d="M145.715053 0.774637h853.464524a355.719148 355.719148 0 0 1 63.425878 1.477664 168.510509 168.510509 0 0 1 71.553029 30.832024 154.700035 154.700035 0 0 1 55.668142 89.512327 266.292071 266.292071 0 0 1 2.983745 58.367721v661.197727a275.811636 275.811636 0 0 1-2.10283 53.991563 153.648621 153.648621 0 0 1-52.059233 90.705825 168.027426 168.027426 0 0 1-70.643697 33.503186 365.35238 365.35238 0 0 1-70.331115 2.415412h-807.031779a326.080622 326.080622 0 0 1-72.433944-3.893076 152.710873 152.710873 0 0 1-108.636707-96.616481 247.451857 247.451857 0 0 1-8.97965-85.249836V204.89116q0-32.309688 0.284166-64.647792a172.773001 172.773001 0 0 1 17.959299-59.674885A159.474026 159.474026 0 0 1 102.038721 9.328037 174.79058 174.79058 0 0 1 130.767916 2.138634z m4.773991 85.249836l-6.280071 0.596749-14.947138 3.893075a69.791199 69.791199 0 0 0-33.844185 28.416612 124.72051 124.72051 0 0 0-9.576398 65.358208v641.760764a253.874011 253.874011 0 0 0 2.102829 60.754716 68.199869 68.199869 0 0 0 45.46658 47.597826 189.652468 189.652468 0 0 0 49.672237 3.01216h819.052006a248.474855 248.474855 0 0 0 52.08765-1.50608 79.566513 79.566513 0 0 0 31.997105-17.049967c21.738708-17.561466 21.255626-46.63166 21.255626-85.903418V184.544866a204.798522 204.798522 0 0 0-2.074413-47.285242 69.1092 69.1092 0 0 0-24.864535-37.424678c-21.369292-15.68597-44.557248-13.75364-81.101011-13.75364H150.489044zM347.842414 312.703786a64.477293 64.477293 0 0 1 51.348818 31.45719l89.199745 90.421659a43.704749 43.704749 0 0 1 14.805055 49.217572 40.635755 40.635755 0 0 1-52.996981 21.085126 66.551705 66.551705 0 0 1-19.749546-16.737385l-40.806255-41.17567v204.599606c0 46.262244 6.763154 80.362179-33.901018 87.068499a33.787352 33.787352 0 0 1-22.39229-5.342323c-21.852375-13.497891-19.408546-33.190603-19.408546-67.972536v-216.989249L273.362474 489.170946a65.358207 65.358207 0 0 1-19.408546 16.396386 39.58434 39.58434 0 0 1-50.695235-19.408546 46.091745 46.091745 0 0 1 16.140635-54.588312l70.416365-71.325696 26.654782-27.109448a90.194326 90.194326 0 0 1 17.049967-15.742803 125.033093 125.033093 0 0 1 14.321972-4.688741z m286.581532 15.742803h228.412727c36.003847 0 58.595054-3.637326 71.04153 21.426126a39.442257 39.442257 0 0 1 3.608909 24.438286c-7.757735 36.14593-38.362426 31.798189-80.617928 31.798189h-159.644526a292.520603 292.520603 0 0 1-76.355436-3.012161 39.783257 39.783257 0 0 1-16.453218-57.913055 40.209506 40.209506 0 0 1 21.397708-15.401804z m-2.642745 159.133027h230.174557c35.208182 0 57.458389-4.091992 71.04153 19.067547a36.771096 36.771096 0 0 1 4.94449 24.125703c-6.422154 38.930758-38.362426 34.099934-81.953509 34.099935h-157.996362a248.759021 248.759021 0 0 1-80.646345-4.688741 39.129675 39.129675 0 0 1 4.944491-70.331115z m3.296327 158.024779h227.332896c36.714263 0 61.323049-3.324744 72.405527 23.784704a40.436839 40.436839 0 0 1 2.614328 22.108125c-7.303069 35.833348-37.99301 31.798189-79.566513 31.798188h-160.610691a293.770934 293.770934 0 0 1-76.355436-3.012161 39.783257 39.783257 0 0 1-17.049968-56.833223 40.635755 40.635755 0 0 1 22.079708-16.424802z" p-id="4501" fill="#e6e6e6"></path></svg>