<?xml version="1.0" standalone="no"?><!DOCTYPE svg PUBLIC "-//W3C//DTD SVG 1.1//EN" "http://www.w3.org/Graphics/SVG/1.1/DTD/svg11.dtd"><svg t="1625570368377" class="icon" viewBox="0 0 1097 1024" version="1.1" xmlns="http://www.w3.org/2000/svg" p-id="6607" xmlns:xlink="http://www.w3.org/1999/xlink" width="214.2578125" height="200"><defs><style type="text/css"></style></defs><path d="M546.011429 0.146286a509.220571 509.220571 0 1 1 0 1018.441143 509.220571 509.220571 0 0 1 0-1018.441143z m122.806857 254.610285a147.017143 147.017143 0 0 0-76.946286 20.918858c-44.105143 24.868571-70.729143 69.046857-70.729143 117.101714v236.470857c0 27.794286-15.798857 53.174857-42.422857 68.461714-15.286857 8.484571-32.182857 13.019429-49.737143 13.019429-50.980571 0-92.233143-36.790857-92.233143-81.481143 0-13.531429 3.364571-26.550857 10.752-38.473143 10.678857-18.066286 29.988571-32.182857 54.272-39.570286 2.852571-1.097143 5.12-1.097143 6.217143-1.097142 15.872 0 28.306286-12.434286 28.306286-28.306286a28.013714 28.013714 0 0 0-28.306286-28.306286c-6.802286 0-13.531429 1.170286-23.771428 3.949714a147.602286 147.602286 0 0 0-84.845715 63.926858c-12.434286 20.918857-19.236571 44.178286-19.236571 67.876571 0 76.434286 66.779429 138.093714 148.772571 138.093714 27.209143 0 53.76-6.802286 77.531429-20.406857 44.105143-24.868571 70.729143-68.973714 70.729143-117.028571V392.777143c0-27.721143 15.798857-53.174857 42.422857-68.461714 15.286857-8.484571 32.182857-13.019429 49.737143-13.019429 50.395429 0 91.721143 36.790857 91.721143 81.481143a71.972571 71.972571 0 0 1-10.752 38.473143c-10.752 18.651429-29.988571 32.841143-54.345143 39.643428-2.852571 1.097143-5.12 1.097143-6.217143 1.097143a28.013714 28.013714 0 0 0-28.306286 28.306286c0 15.798857 12.434286 28.306286 28.306286 28.306286 6.802286 0 14.116571-1.170286 23.771428-4.022858a147.602286 147.602286 0 0 0 84.845715-63.926857c12.434286-20.918857 19.236571-44.105143 19.236571-67.876571 0-76.361143-66.779429-138.020571-148.772571-138.020572z" fill="#e6e6e6" p-id="6608"></path></svg>