<?xml version="1.0" standalone="no"?><!DOCTYPE svg PUBLIC "-//W3C//DTD SVG 1.1//EN" "http://www.w3.org/Graphics/SVG/1.1/DTD/svg11.dtd"><svg t="1625411355081" class="icon" viewBox="0 0 1109 1024" version="1.1" xmlns="http://www.w3.org/2000/svg" p-id="3424" xmlns:xlink="http://www.w3.org/1999/xlink" width="216.6015625" height="200"><defs><style type="text/css"></style></defs><path d="M21.333 960c0-110.933 25.6-196.267 81.067-247.467C38.4 665.6 0 593.067 0 512c0-98.133 59.733-187.733 149.333-226.133 17.067-8.534 34.134 0 42.667 17.066 8.533 17.067 0 34.134-17.067 42.667C106.667 375.467 64 439.467 64 512s42.667 136.533 110.933 166.4c25.6 8.533 25.6 42.667 4.267 55.467C115.2 768 85.333 840.533 85.333 960c0 17.067-12.8 34.133-34.133 34.133S21.333 977.067 21.333 960z m1045.334 0c0 17.067-12.8 34.133-34.134 34.133-17.066 0-34.133-12.8-34.133-34.133 0-119.467-29.867-192-89.6-221.867-21.333-12.8-21.333-46.933 4.267-55.466C981.333 648.533 1024 584.533 1024 512s-42.667-136.533-110.933-166.4C896 337.067 887.467 320 896 302.933c8.533-17.066 25.6-25.6 42.667-17.066 89.6 38.4 149.333 128 149.333 226.133 0 81.067-38.4 153.6-102.4 200.533 55.467 51.2 81.067 136.534 81.067 247.467z m-345.6-422.4c72.533-55.467 119.466-140.8 119.466-238.933C840.533 132.267 708.267 0 541.867 0S243.2 132.267 243.2 298.667c0 102.4 51.2 196.266 132.267 247.466C277.333 648.533 230.4 789.333 230.4 960c0 17.067 12.8 34.133 34.133 34.133s34.134-17.066 34.134-34.133c0-162.133 46.933-290.133 140.8-384 34.133 12.8 68.266 21.333 106.666 21.333 42.667 0 85.334-8.533 123.734-25.6l4.266 4.267c93.867 93.867 140.8 221.867 140.8 384 0 17.067 12.8 34.133 34.134 34.133S883.2 981.333 883.2 960c-8.533-174.933-59.733-315.733-162.133-422.4z m-174.934-4.267c-128 0-234.666-106.666-234.666-234.666S418.133 64 546.133 64s230.4 106.667 230.4 234.667-102.4 234.666-230.4 234.666z m-157.866-179.2c-8.534-12.8-4.267-34.133 12.8-42.666 17.066-8.534 34.133 0 42.666 12.8 21.334 46.933 55.467 68.266 98.134 68.266s76.8-21.333 98.133-68.266c8.533-17.067 25.6-21.334 42.667-12.8s21.333 25.6 12.8 42.666c-34.134 68.267-85.334 102.4-157.867 102.4s-115.2-34.133-149.333-102.4z" fill="#e6e6e6" p-id="3425"></path></svg>