<?xml version="1.0" standalone="no"?><!DOCTYPE svg PUBLIC "-//W3C//DTD SVG 1.1//EN" "http://www.w3.org/Graphics/SVG/1.1/DTD/svg11.dtd"><svg t="1625471366120" class="icon" viewBox="0 0 1024 1024" version="1.1" xmlns="http://www.w3.org/2000/svg" p-id="3292" xmlns:xlink="http://www.w3.org/1999/xlink" width="200" height="200"><defs><style type="text/css"></style></defs><path d="M863.095467 63.761067c61.098667 0 111.069867 47.650133 116.1216 108.1344l0.4096 10.171733v508.928c0 61.781333-46.6944 112.708267-106.496 117.896533l-10.0352 0.477867h-96.119467a34.133333 34.133333 0 0 1-6.144-67.720533l6.144-0.546134h96.119467a48.9472 48.9472 0 0 0 47.786666-43.281066l0.477867-6.826667V182.0672a49.493333 49.493333 0 0 0-41.7792-49.629867l-6.485333-0.4096H140.4928a48.9472 48.9472 0 0 0-47.854933 43.2128l-0.477867 6.826667v508.928c0 25.531733 18.363733 46.353067 41.7792 49.629867l6.5536 0.477866H531.797333a34.133333 34.133333 0 0 1 20.48 6.7584l4.096 3.618134 202.820267 210.193066a34.133333 34.133333 0 0 1-44.373333 51.4048l-4.7104-4.027733-192.785067-199.748267h-376.832a117.282133 117.282133 0 0 1-116.1216-108.066133l-0.477867-10.24V182.0672c0-61.781333 46.6944-112.64 106.496-117.896533l10.103467-0.4096h722.602667z" fill="#e6e6e6" p-id="3293"></path><path d="M225.28 277.162667m40.072533 0l306.9952 0q40.072533 0 40.072534 40.072533l0 0.068267q0 40.072533-40.072534 40.072533l-306.9952 0q-40.072533 0-40.072533-40.072533l0-0.068267q0-40.072533 40.072533-40.072533Z" fill="#e6e6e6" p-id="3294"></path><path d="M225.28 485.7856m40.072533 0l469.947734 0q40.072533 0 40.072533 40.072533l0 0.068267q0 40.072533-40.072533 40.072533l-469.947734 0q-40.072533 0-40.072533-40.072533l0-0.068267q0-40.072533 40.072533-40.072533Z" fill="#e6e6e6" p-id="3295"></path></svg>