<?xml version="1.0" standalone="no"?><!DOCTYPE svg PUBLIC "-//W3C//DTD SVG 1.1//EN" "http://www.w3.org/Graphics/SVG/1.1/DTD/svg11.dtd"><svg t="1625569934559" class="icon" viewBox="0 0 1024 1024" version="1.1" xmlns="http://www.w3.org/2000/svg" p-id="5073" xmlns:xlink="http://www.w3.org/1999/xlink" width="200" height="200"><defs><style type="text/css"></style></defs><path d="M667.694545 186.88m0 23.505455l0 0.232727q0 23.505455-23.505454 23.505454l-236.218182 0q-23.505455 0-23.505454-23.505454l0-0.232727q0-23.505455 23.505454-23.505455l236.218182 0q23.505455 0 23.505454 23.505455Z" fill="#e6e6e6" p-id="5074"></path><path d="M667.694545 293.003636m0 23.505455l0 0.232727q0 23.505455-23.505454 23.505455l-236.218182 0q-23.505455 0-23.505454-23.505455l0-0.232727q0-23.505455 23.505454-23.505455l236.218182 0q23.505455 0 23.505454 23.505455Z" fill="#e6e6e6" p-id="5075"></path><path d="M535.272727 478.487273h-2.792727l-292.072727-74.007273a11.170909 11.170909 0 0 1-7.68-11.170909V101.003636a37.701818 37.701818 0 0 1 38.632727-36.305454h512a37.701818 37.701818 0 0 1 38.865455 36.305454V395.636364a11.403636 11.403636 0 0 1-8.61091 11.170909l-273.92 72.145454z m-279.272727-93.090909l279.272727 69.818181 262.283637-69.818181V101.003636a14.429091 14.429091 0 0 0-15.592728-13.032727h-512a14.429091 14.429091 0 0 0-15.36 13.032727z" fill="#e6e6e6" p-id="5076"></path><path d="M940.916364 920.669091H111.010909a36.538182 36.538182 0 0 1-38.865454-33.745455V383.069091a31.883636 31.883636 0 0 1 12.567272-24.901818 43.054545 43.054545 0 0 1 36.538182-7.68L535.272727 454.749091l395.636364-104.261818a43.752727 43.752727 0 0 1 37.003636 7.68 31.650909 31.650909 0 0 1 12.334546 24.901818v503.854545a36.538182 36.538182 0 0 1-39.330909 33.745455zM111.010909 372.363636a20.48 20.48 0 0 0-11.869091 3.723637 9.309091 9.309091 0 0 0-3.723636 6.749091v504.087272c0 5.585455 7.447273 10.472727 15.592727 10.472728h829.905455c8.378182 0 15.592727-4.887273 15.592727-10.472728V383.069091a8.610909 8.610909 0 0 0-3.723636-6.749091 19.549091 19.549091 0 0 0-16.756364-3.025455l-398.196364 104.727273a10.007273 10.007273 0 0 1-5.818182 0L116.363636 372.363636z" fill="#e6e6e6" p-id="5077"></path></svg>