<?xml version="1.0" standalone="no"?><!DOCTYPE svg PUBLIC "-//W3C//DTD SVG 1.1//EN" "http://www.w3.org/Graphics/SVG/1.1/DTD/svg11.dtd"><svg t="1625310264093" class="icon" viewBox="0 0 1479 1024" version="1.1" xmlns="http://www.w3.org/2000/svg" p-id="3600" xmlns:xlink="http://www.w3.org/1999/xlink" width="288.8671875" height="200"><defs><style type="text/css"></style></defs><path d="M739.548982 0.004551c162.473222 0 318.119839 48.241349 450.499106 138.97832 129.13663 88.745878 226.870872 211.624786 282.166381 355.38173L1479.097964 512l-6.883495 17.635399c-55.295508 143.586279-152.802197 266.465187-282.166381 355.38173A790.97608 790.97608 0 0 1 739.492093 1023.995449c-162.416334 0-318.062951-48.241349-450.442218-138.97832-129.13663-88.745878-226.870872-211.624786-282.166381-355.38173L0 512l6.883494-17.635399c55.295508-143.586279 152.802197-266.465187 282.166381-355.38173A791.032969 791.032969 0 0 1 739.548982 0.004551z m0 284.441916c-125.438885 0-227.553533 102.114648-227.553533 227.553533s102.114648 227.553533 227.553533 227.553533 227.553533-102.114648 227.553533-227.553533-102.114648-227.553533-227.553533-227.553533z" p-id="3601" fill="#1296db"></path></svg>